<?xml version="1.0" encoding="UTF-8"?>
<!DOCTYPE svg PUBLIC "-//W3C//DTD SVG 1.1//EN" "http://www.w3.org/Graphics/SVG/1.1/DTD/svg11.dtd">
<!-- Creator: CorelDRAW X5 -->
<svg xmlns="http://www.w3.org/2000/svg" xml:space="preserve" width="191.389mm" height="205.938mm" style="shape-rendering:geometricPrecision; text-rendering:geometricPrecision; image-rendering:optimizeQuality; fill-rule:evenodd; clip-rule:evenodd"
viewBox="0 0 18693 20113"
 xmlns:xlink="http://www.w3.org/1999/xlink">
 <defs>
  <style type="text/css">
   <![CDATA[
    .fil1 {fill:black}
    .fil0 {fill:white}
   ]]>
  </style>
 </defs>
 <g id="Layer_x0020_1">
  <metadata id="CorelCorpID_0Corel-Layer"/>
  <g id="_208659512">
   <polygon class="fil0" points="0,20113 18693,20113 18693,0 0,0 "/>
   <path class="fil1" d="M5458 3265c399,-75 872,-299 1620,-399 598,-75 1221,-174 1844,-174 798,0 1819,25 2617,174 224,50 947,224 1047,324 -100,50 -274,-50 -573,-75 -224,-25 -424,-50 -648,-75 -150,-25 -1171,-25 -1396,0 -922,75 -2193,224 -3066,498 -748,249 -548,125 -1321,474 -125,50 -150,75 -249,125 -125,100 -150,25 -174,474 -25,324 -25,1047 -25,1371 25,249 50,424 50,648 0,125 25,-75 50,150 0,75 0,125 0,199 75,349 174,798 274,1146 50,174 174,623 224,723l25 25c274,548 199,424 548,947 0,0 0,0 0,25 150,174 523,523 847,449l100 0c150,-25 399,-75 548,-150 75,-25 75,-25 174,-75 224,-75 424,-174 648,-274l1047 -598c150,-125 150,-75 274,-199l548 -399c299,-199 623,-498 897,-748 50,-50 100,-75 150,-100 50,-75 25,-75 100,-125l349 -374c150,-125 174,-100 349,-349l748 -822c75,-150 523,-773 598,-897 174,-274 498,-1196 274,-1471 -50,-75 -424,-249 -523,-324 -474,-249 -1271,-598 -1745,-723 -598,-125 -1944,-349 -2517,-274 -274,25 -598,0 -897,50 -224,25 -474,50 -723,100 -349,75 -1146,274 -1495,399 -449,199 -449,75 -498,125 -25,25 -75,174 -100,199z"/>
   <path class="fil1" d="M14281 14456c-50,50 -50,75 -75,150 -75,-150 100,-75 -25,-274 -50,-100 -100,-174 -150,-274 -249,0 -523,25 -798,0 -523,-75 -2243,199 -2766,374 -324,100 -623,174 -897,324 -324,199 -349,174 -673,424 -50,50 -25,25 -75,50 -174,125 -349,324 -523,474 -50,25 -75,50 -125,75l-150 150c0,0 -25,25 -25,25l-25 50c-50,25 -50,50 -100,100 -75,150 -150,249 -199,399 -100,249 -150,274 -125,623 25,224 25,424 150,623 50,100 100,199 150,249l125 174c0,0 0,0 25,0l25 75c174,150 349,299 573,424 498,299 623,374 1221,598 125,25 224,50 324,75 299,125 1047,199 1396,249 349,25 349,50 648,-50 573,-249 1122,-474 1670,-773l997 -623c75,-75 474,-349 548,-449 174,-174 349,-299 523,-498 174,-199 399,-449 548,-673 50,-75 125,-125 199,-199 125,-174 224,-324 324,-498 75,-150 25,-174 150,-274 -75,25 -199,224 -249,299l-224 324c-100,100 -150,199 -249,299 -100,75 -75,50 -150,125 -50,75 -199,249 -274,299l-125 150c-174,199 -399,349 -573,548 -199,174 -449,324 -648,474 -150,100 -872,548 -1072,623 -399,199 -1246,548 -1695,548 -523,0 -947,-25 -1470,-224 -174,-50 -399,-174 -523,-249l-199 -100c-25,0 -50,0 -50,-25 -50,-25 -25,0 -50,-50 75,-100 174,25 299,100 349,174 623,299 1072,374 773,125 1146,75 1844,-150 598,-150 1271,-573 1770,-922 199,-125 399,-274 573,-424l249 -224c174,-150 349,-299 523,-474l224 -249c75,-75 648,-723 723,-872l100 -150c0,0 25,0 25,0l399 -673c274,-498 623,-2193 548,-2368l-224 249c-50,125 -100,174 -199,274 -150,224 -274,474 -474,698 -174,174 -199,324 -399,548 -50,25 -25,0 -75,50 -125,150 -299,274 -424,399 -50,50 -75,75 -125,125 -100,75 -748,573 -847,573 -75,0 -249,-125 -299,-174 -100,-50 -174,-125 -249,-224 -100,-150 -150,-324 -249,-474 -50,-50 -75,-75 -100,-150z"/>
   <path class="fil1" d="M2492 11041c150,25 424,199 673,299l199 75c150,100 374,150 523,224l50 25c50,25 0,0 50,25 50,25 75,25 150,50l50 25c0,0 0,0 0,0 174,50 224,0 324,25l100 25c100,0 299,0 399,-25 125,-25 249,-50 374,-150 100,-75 174,-150 199,-299 -100,-125 -249,-199 -399,-299 -125,-75 -299,-174 -424,-274 -75,-75 -125,-75 -199,-150 -75,-25 -150,-100 -199,-150 -100,-50 -125,-75 -199,-150 -100,-50 -50,-25 -125,-50 -75,-50 -50,-50 -75,-100 199,50 474,299 648,399 274,174 349,374 698,249 75,0 75,-25 125,-50 75,-25 50,0 150,-25 50,-25 174,-100 224,-125l-50 -199c0,-50 -25,-50 -25,-125 -25,-100 -50,-150 -125,-249 -50,-50 -25,-25 -75,-75 50,-50 50,25 100,0 -25,-249 -150,-424 -174,-648 75,-75 199,-174 299,-224 -75,-299 -224,-623 -324,-922 -75,-274 -125,-548 -174,-822 -25,-75 -50,-100 -50,-174 -100,-548 -199,-1770 -125,-2243 25,-249 50,-498 75,-773 50,-224 -25,-523 -25,-773 125,-25 199,-50 199,-224 -224,50 -548,199 -748,324 -324,174 -399,174 -698,399 -199,125 -374,249 -548,399l-598 623c0,498 100,822 274,1196 50,75 50,174 100,274 50,125 100,150 125,224 50,100 75,174 125,274l125 249c75,125 199,349 274,474 50,100 100,125 150,224 75,125 523,748 623,872 125,125 150,100 150,224 -75,-25 -125,-125 -174,-199l-424 -474c-50,-100 -75,-150 -150,-224 -75,-75 -199,-224 -274,-299l-424 -673c-75,-75 -75,-125 -150,-224l-75 -75c0,-25 0,-25 0,-25 -174,-274 -324,-598 -424,-897l-174 -573c-100,25 -299,374 -424,474 -125,174 -249,374 -349,573 -100,125 -249,449 -224,623 50,249 125,498 224,698 25,100 50,100 75,150 25,50 50,100 75,150 174,249 374,573 573,798l224 224c50,100 150,150 249,224l299 299c25,25 0,0 25,50 50,25 100,75 150,125 -199,-50 -324,-249 -523,-349 -150,-100 -299,-299 -449,-424 -75,-50 -75,-75 -150,-150 -150,-150 -274,-274 -424,-449 -125,-150 100,125 -25,-25 0,-25 0,-25 0,-25l-75 -100c-274,-374 -424,-872 -474,-972 -50,75 -75,224 -125,274 -100,199 -299,623 -374,822 -199,523 -199,798 75,1246 25,50 50,100 75,125l150 249c50,25 50,50 100,100 125,150 249,274 374,424 100,125 25,25 100,75 125,100 349,249 498,324 125,50 349,150 424,249z"/>
   <path class="fil1" d="M4785 14506c-25,100 -25,50 -75,125 75,199 274,598 374,822 299,648 50,598 100,1022l274 25c75,-100 -25,-50 75,-100 25,100 125,324 199,399 50,-50 199,-125 249,-174 0,-100 -25,-75 -75,-174l-249 -498c-75,-199 -125,-249 -75,-623 25,-75 25,-75 100,-150 0,0 0,0 0,0 -100,-424 -75,-125 -25,-598 50,-449 0,-399 150,-523 -50,-299 -150,-623 -224,-922 -25,-100 -25,-150 -50,-224l-125 -424c0,-75 50,-75 25,-224l-125 -50c0,-125 -50,-324 -100,-424 -100,25 -100,50 -199,0 -100,25 -299,25 -399,25l-100 -25c-100,-25 -150,25 -324,-25 0,0 0,0 0,0l-50 -25c-75,-25 -100,-25 -150,-50 -50,-25 0,0 -50,-25l-50 -25c-150,-75 -374,-125 -523,-224l-199 -75c-249,-100 -523,-274 -673,-299 -249,-100 -598,-274 -822,-399 -50,-50 -75,-75 -125,-125l-274 -199c-100,-75 -100,-50 -174,-125l-299 -299c-150,-150 -274,-424 -374,-523 -25,199 -50,399 -125,573 -50,199 -75,424 -125,598 -100,498 -50,723 249,1097 75,125 125,174 224,249 0,0 25,0 25,0l199 174c199,224 523,399 822,424l249 75c75,25 224,75 299,25 50,0 -50,0 50,50 174,50 748,100 947,100 75,0 125,0 174,25 125,0 125,-25 199,25 -324,25 -573,-50 -872,-50 -274,0 -548,-75 -822,-125 -224,-25 -822,-224 -1022,-324 -199,-75 -150,-125 -324,-50l25 -50c25,0 25,0 25,-50 -100,-25 -150,-100 -224,-150 -25,-25 -25,-25 -25,-25 -50,-25 -100,-100 -174,-125l75 748c75,523 0,872 498,1196l498 249c0,0 0,0 25,25l50 25c-349,-50 -573,-274 -872,-374 25,174 199,498 249,723 25,100 50,150 100,249 25,25 25,50 50,100l75 100c25,50 0,0 25,50 174,224 224,174 449,299 125,50 75,0 100,75 -75,-25 -125,-50 -224,-50 50,125 -25,-25 125,374 50,125 150,249 199,374 100,125 199,249 299,374l274 299c25,25 50,50 75,75l424 424c50,25 100,100 125,150 150,150 299,274 449,399 150,125 100,174 324,25 150,-100 174,-150 299,-274 174,-174 299,-498 399,-723 125,-374 274,-1271 -100,-1570l-125 -100c-25,-50 0,-25 -25,-50 199,-150 349,-224 573,-374 125,-100 25,-125 174,-150z"/>
   <path class="fil1" d="M8075 10119c0,100 199,1022 224,1146 0,150 50,349 100,548 25,100 25,125 50,274 50,299 224,598 324,872 25,100 75,249 125,324 174,224 299,498 523,698 100,75 50,25 75,100 -25,25 0,0 -50,50 -50,0 -199,-150 -224,-224 -50,-75 -25,-25 -100,-75 -75,-100 -199,-299 -274,-424 -150,-274 -299,-673 -399,-997 -224,-698 -349,-1844 -474,-2243 -174,50 -399,125 -698,199 0,50 25,125 50,150 75,224 399,1271 424,1470 50,324 150,748 174,922 0,174 25,548 75,673 25,100 -25,199 0,474l50 872 -100 872c100,-25 150,-75 174,-150 50,-75 449,-399 548,-498l598 -449 449 -224 498 -199c125,-25 174,0 274,-75 75,-25 25,-25 125,-50 25,-25 100,-25 125,-50 100,0 199,-25 324,-25 199,-50 548,-25 598,-50 174,-648 -199,-1246 -374,-1695 -150,-424 -897,-1520 -1146,-1894 -75,-75 -125,-150 -174,-249l-150 -174c-25,-50 -25,-50 -50,-75 -25,-50 0,-25 -50,-50 -75,-125 -50,-75 -125,-199l-199 -249c-150,25 -349,199 -474,274 -75,25 -125,50 -174,75 -224,125 -449,249 -673,324z"/>
   <path class="fil1" d="M17347 3315c25,100 50,75 100,125 125,75 474,498 474,673 0,474 -1047,798 -1421,922 -798,274 -1221,274 -1869,449 -125,25 -299,25 -424,50 -174,25 -698,50 -798,150 50,199 449,199 449,523 25,349 -498,1321 -798,1620 -150,150 -125,174 0,299 -150,-50 -100,-75 -174,-125 -25,75 -50,50 -75,125 50,100 -25,0 50,75 75,50 75,50 150,100l50 25c25,50 50,100 125,174l847 474c0,0 0,0 0,-25 324,174 -274,-75 224,199 125,75 399,274 548,324 50,-125 125,-274 174,-399 75,-125 100,-299 150,-449 75,-199 75,-274 174,-399 100,-100 174,-199 324,-274 174,150 573,449 673,573 100,100 25,50 150,150 50,50 100,125 150,174 474,523 1097,1819 1246,1944l-125 -847c-199,-1171 -623,-2193 -1296,-3165l-199 -299c-50,-75 -50,-50 -125,-125 -100,-125 -374,-474 -449,-548l-75 -75c-125,-174 -224,-174 -299,-324 623,-174 1470,-324 2069,-623 224,-125 648,-399 623,-723 0,-125 -249,-424 -349,-498 -75,-100 -150,-224 -274,-249z"/>
   <path class="fil1" d="M4112 17322c25,25 75,50 75,50 -25,0 -50,0 -100,-25 -50,100 -75,100 -125,199 -75,75 -25,50 -150,174 -100,75 -299,224 -424,224 -50,-25 -100,-125 -150,-150 -50,-25 -75,0 -75,0 50,75 25,25 100,75 174,174 25,50 199,150 50,50 50,50 100,100l224 150c125,75 100,75 199,174l324 199c25,25 75,50 125,75 374,224 748,573 1421,798 125,50 399,224 523,199 50,0 -50,-50 75,25 125,75 249,150 399,174 75,-150 224,-498 324,-623 -25,-50 0,0 -25,-50 -25,0 -25,-25 -25,-25 0,0 -25,0 -25,-25 0,0 0,0 0,0 50,-50 50,-75 50,-150 -174,-75 -299,-224 -424,-274 0,-150 100,-249 150,-399l-25 -25c-25,-25 0,0 -50,-25l-573 -349c25,-100 75,-125 100,-224 -100,-75 -349,-199 -474,-274l-748 -374c-75,-50 -150,-100 -224,-150 -125,-50 -374,-249 -498,-249 -50,125 -75,224 -125,324 -50,125 -100,174 -150,299z"/>
   <path class="fil1" d="M17347 3315c-25,-75 25,0 -25,-50 -25,-25 -25,0 -50,-25 -224,-174 -474,-299 -673,-449 50,-50 125,-100 174,-125 249,-125 822,-449 673,-798 -150,-299 -773,-623 -1072,-773 -698,-349 -1595,-573 -2368,-673 -573,-100 -1097,-125 -1720,-125 -249,0 -972,0 -1122,100 100,50 698,25 872,25 399,25 822,100 1221,150 872,100 1794,299 2592,623 274,100 673,249 922,449 249,249 399,324 -324,723 -474,274 -374,150 -997,-100 -125,-50 -249,-50 -399,-100 -723,-274 -1994,-498 -2791,-548 -150,-25 -299,-50 -424,-75 -125,0 -872,0 -947,25 50,50 174,50 274,50l673 100c125,0 150,25 274,50 424,50 822,125 1196,224 150,50 399,125 573,150 299,50 573,174 847,274 224,75 648,199 798,324 -50,50 -125,75 -224,100 -449,100 -872,274 -1321,374l-449 100c-75,25 -50,0 -75,25 150,50 1670,-374 1969,-498 199,-100 349,-50 498,75l75 50c-150,50 -299,150 -498,174 -174,50 -349,100 -523,174 -174,50 -349,100 -523,150 -174,50 -399,100 -548,150 125,50 100,199 349,100 50,-75 25,-150 125,-199 25,50 0,125 25,199 25,349 598,424 698,25 50,-249 -100,-249 -150,-374 349,-100 648,-199 947,-324 274,-100 374,50 598,174 125,50 199,100 299,150 100,75 150,125 249,174 75,75 150,125 249,199 224,249 174,349 -75,498 -199,150 -274,224 -573,299 -349,125 -1022,374 -1371,374 50,-299 -100,-523 -449,-474 -150,25 -125,75 -199,150 -100,-25 -274,0 -374,-25 -100,-50 -50,-150 -224,-174 -75,299 -75,324 -199,623 -25,100 -50,125 -100,199 100,0 174,-25 274,-25 125,0 125,-25 249,-50 174,-25 374,-50 548,-75 324,-50 723,-125 1047,-199 299,-100 648,-199 922,-324 199,-75 399,-150 548,-299 75,-50 125,-150 174,-224 -100,-274 -274,-374 -474,-548 -349,-299 -1421,-773 -1919,-947 -75,-25 -125,-50 -199,-75l-748 -274c-125,-25 -274,-50 -424,-100 -573,-174 -1146,-274 -1720,-374 -75,0 -150,0 -224,-25 -75,0 -174,0 -224,-50 174,0 199,-25 399,0 474,75 673,25 1271,150 249,50 523,100 798,150l748 199c673,224 1072,324 1670,648 224,125 872,548 897,548z"/>
   <path class="fil0" d="M14231 14630c-125,25 -75,150 -75,324 -150,-50 -75,-75 -324,-249 -174,-125 -224,-75 -424,-100 -349,0 -748,25 -1072,75 -474,100 -1246,224 -1595,673 -174,249 -199,573 -25,847 249,374 723,-100 897,-224 249,-224 523,-474 773,-673 374,-249 822,-449 1246,-199 50,50 75,75 150,125l150 150 249 324c249,274 997,523 1296,374 125,-75 324,-274 449,-399l150 -150 399 -449c199,-224 299,-299 523,-623 150,-249 723,-1146 648,-1321 -50,0 -75,0 -125,100l-174 274c-125,274 -424,598 -548,798l-125 174c-100,125 -125,100 -174,199 -125,174 -50,100 -199,249 -75,75 -174,174 -199,249 -174,199 -548,523 -822,523 -224,0 -150,-75 -349,-125 -474,-75 -349,-75 -673,-424 -199,-174 -50,-498 -25,-523z"/>
   <path class="fil1" d="M14256 13907c75,-100 125,-274 174,-399 75,-125 299,-399 399,-498 274,-249 598,-424 972,-523 174,-50 299,-100 474,-125 199,-25 922,-125 997,-100 -50,125 -50,50 -324,100 -548,75 -1271,125 -1720,474l-125 50c-174,125 -374,324 -474,523 -25,50 -50,75 -75,125 -100,100 -224,424 -199,598l498 897c100,125 50,75 100,125 50,-174 125,-399 199,-548l249 -498c100,-224 523,-822 723,-947 150,-125 349,-299 548,-399 324,-174 1072,-424 1421,-449 -25,-75 -50,-75 -249,-125 -698,-174 -1495,-75 -2193,75 -75,25 -573,224 -673,274 -174,100 -274,174 -474,324 -224,174 -548,723 -249,1047z"/>
   <path class="fil1" d="M17920 11116c-324,-25 -822,-150 -1022,-299 -424,-299 -374,-224 -698,-623 -249,-349 -498,-972 -598,-1396 -25,-125 -100,-449 -150,-523 -75,75 -224,548 -274,673 -75,224 -174,449 -249,673 -224,648 -199,349 -50,897 50,174 75,174 174,299 100,174 150,100 249,224 224,249 474,299 748,399 125,25 249,50 399,75 249,25 598,0 822,-75 150,-25 598,-174 648,-324z"/>
   <path class="fil1" d="M5732 15851l374 25c50,-150 50,-299 75,-449 25,-125 75,-299 100,-399 75,-324 125,-623 199,-897 50,-324 100,-598 150,-872 50,-274 125,-673 174,-872 50,-199 -125,-548 -199,-798 -75,-299 -150,-548 -249,-822 -25,-150 -75,-274 -100,-424 -100,-249 -249,-1022 -399,-1047 -25,125 -50,274 -100,399 0,75 -25,150 -25,199l623 2143c25,75 25,150 50,199 50,174 25,100 -25,199 -25,125 -50,299 -75,424 0,75 -25,125 -25,199 -25,224 -174,922 -199,1047 -100,224 -100,598 -174,872 -100,299 -125,548 -174,872z"/>
   <path class="fil0" d="M11864 374l1520 174c474,50 922,174 1396,249 474,100 1894,573 2218,1047l50 50c-150,399 -598,474 -872,673l75 50c25,25 50,25 100,50 274,150 274,25 748,-224 125,-75 75,-75 150,-150 324,-349 150,-424 -125,-673 -75,-100 -75,-75 -150,-125 -399,-324 -598,-349 -1022,-548 -573,-274 -2019,-548 -2642,-573 -174,0 -1321,-100 -1446,0z"/>
   <path class="fil0" d="M3215 5782c100,-50 75,-100 224,-299l100 -125c0,0 0,0 25,0 125,-174 299,-424 424,-573l498 -399c100,-75 75,-75 249,-199 100,-50 174,-75 274,-174 0,-100 -50,-199 -75,-274 -199,75 -174,75 -374,150 -424,199 -872,449 -1171,822 -25,50 -25,25 -50,25l-25 25c0,25 0,25 0,25 -100,100 -174,174 -249,299 -125,174 -150,224 -75,349 125,199 199,324 224,349z"/>
   <path class="fil1" d="M12711 6655c75,50 75,50 125,100 100,75 573,224 50,673 -150,150 -174,224 -474,449 -75,50 -50,50 -125,100 -100,125 -523,399 -424,723 174,75 249,-50 324,-125 274,-224 498,-424 723,-698 75,-75 75,-100 150,-150 150,-199 399,-474 424,-723 0,-199 -199,-374 -399,-598 -75,-75 0,-25 -75,-75 -125,50 -249,199 -299,324z"/>
   <path class="fil0" d="M2118 7577c75,-125 25,-623 199,-1047 25,-75 50,-100 100,-174 50,-125 150,-224 199,-349 -125,-100 -174,-299 -449,50 -75,75 -125,100 -174,224 -150,199 -349,623 -299,897 25,100 100,174 174,224l249 174z"/>
   <path class="fil0" d="M1122 11739c0,0 50,0 0,-100l-25 -25c-150,-274 -125,-349 -150,-424 -25,-25 -50,-75 -75,-125 -150,-474 -25,-748 -75,-922 -100,-25 -150,-50 -249,-75 -174,249 -199,773 -125,1122 50,150 75,349 224,424 0,0 399,150 474,125z"/>
   <path class="fil0" d="M2841 16749c-100,299 100,498 374,623 548,224 773,-773 897,-1122 125,-399 224,-424 -25,-424 -50,125 -125,324 -174,474 -100,199 -374,698 -623,623 -199,-25 -224,-224 -449,-174z"/>
   <path class="fil0" d="M14530 8723c125,-25 75,-75 75,-424 25,-424 50,-822 224,-1221 75,-100 150,-199 249,-249 523,-299 972,374 1097,474 75,50 50,50 125,125 75,100 150,174 224,274l374 623c25,75 50,100 100,150 75,150 449,1047 449,1047 75,100 125,50 75,-50l-224 -523c-150,-349 -100,-299 -324,-673 -50,-50 -50,-100 -100,-150 -50,-100 -125,-224 -174,-324 -125,-224 -199,-274 -324,-424 -199,-299 -648,-723 -1022,-748 -174,0 -274,50 -374,125 -199,150 -299,399 -349,648 -100,299 -174,1047 -125,1271 25,50 0,0 25,50z"/>
   <path class="fil1" d="M12138 7253l299 474c25,25 25,25 25,25 249,-224 100,-150 224,-199 125,-75 125,-150 150,-199 150,-274 374,-249 50,-498 -50,-25 -199,-125 -249,-150 -150,125 -150,174 -249,274 -25,25 -50,50 -75,50 -25,25 0,0 -25,25 -25,50 0,0 -25,50 0,0 0,0 -25,0 -50,75 -50,50 -100,150z"/>
   <path class="fil0" d="M1221 9346c50,-174 0,-199 0,-374 25,-100 25,-224 25,-349 25,-174 150,-474 199,-648 -75,-50 -100,-75 -150,-100 -75,25 -199,249 -249,324 -100,174 -125,224 -174,449 -75,424 -100,474 150,598 100,50 75,75 199,100z"/>
   <path class="fil0" d="M1196 13558c-25,-150 -100,-199 -150,-249 -150,-224 -224,-449 -299,-773 -25,-25 -125,-75 -174,-25 -100,75 -50,449 25,648 25,50 50,125 75,174 125,249 224,199 523,224z"/>
   <path class="fil1" d="M13209 6032c299,100 424,174 324,474 -75,224 -174,50 0,399 75,-50 50,-25 100,-100 150,-399 274,-573 25,-822 -75,-75 -50,-50 -150,-100 -150,-100 0,-75 -150,-75l-75 100c-50,50 -50,50 -75,125z"/>
   <path class="fil0" d="M14829 4511c-150,75 -224,150 -199,324 75,299 523,150 573,75 100,-174 -75,-523 -374,-399z"/>
   <path class="fil0" d="M14804 3415c-150,25 -349,0 -349,224 -50,349 523,449 573,50 25,-50 0,-150 -50,-199 -50,-100 -75,-100 -174,-75z"/>
   <path class="fil0" d="M1794 14904c-50,-100 -299,-224 -449,-498 -50,-75 -75,-125 -125,-199l-150 0c0,224 75,399 199,573 125,150 274,299 523,125z"/>
   <path class="fil0" d="M4312 13932l474 -50c199,-50 125,-50 324,75l100 50c-75,-224 -174,25 -324,-374l199 -125c75,125 199,648 299,723l25 -249c0,0 -25,0 -25,0 0,0 0,0 0,-25 -25,-25 -150,-449 -125,-598 -50,0 -723,449 -822,498 -25,0 -50,0 -75,25 -75,50 -25,0 -50,50z"/>
   <path class="fil0" d="M13085 4636c224,0 374,-449 399,-648 0,-100 0,-125 25,-274 -75,-50 -199,-150 -249,-174 25,150 150,100 174,224 0,50 0,50 -50,100 -125,199 -299,523 -299,773z"/>
   <path class="fil0" d="M4785 14506c100,-25 50,-50 150,-75l299 623c50,100 0,50 75,75 -25,-498 75,-25 -100,-548 -25,-75 -75,-174 -75,-274 -25,-100 50,-100 75,-249 -50,25 -25,0 -50,50l-374 399z"/>
   <path class="fil1" d="M13060 6281l249 249c75,75 25,50 100,75 25,-100 125,-249 75,-349 -25,-50 -249,-150 -324,-174 -75,75 -75,125 -100,199z"/>
  </g>
 </g>
</svg>
